<svg width="20" height="20" viewBox="0 0 20 20" fill="none" xmlns="http://www.w3.org/2000/svg">
<path d="M9.99984 18.3996C9.74984 18.3996 9.49984 18.3413 9.2915 18.2246C7.73317 17.3746 4.9915 16.4746 3.27484 16.2496L3.03317 16.2163C1.9415 16.0829 1.0415 15.0579 1.0415 13.9496V3.88295C1.0415 3.22462 1.29984 2.62462 1.77484 2.19129C2.24984 1.75795 2.8665 1.54962 3.5165 1.60795C5.34984 1.74962 8.1165 2.66629 9.68317 3.64962L9.88317 3.76629C9.9415 3.79962 10.0665 3.79962 10.1165 3.77462L10.2498 3.69129C11.8165 2.70795 14.5832 1.77462 16.4248 1.61629C16.4415 1.61629 16.5082 1.61629 16.5248 1.61629C17.1332 1.55795 17.7582 1.77462 18.2248 2.20795C18.6998 2.64129 18.9582 3.24129 18.9582 3.89962V13.9579C18.9582 15.0746 18.0582 16.0913 16.9582 16.2246L16.6832 16.2579C14.9665 16.4829 12.2165 17.3913 10.6915 18.2329C10.4915 18.3496 10.2498 18.3996 9.99984 18.3996ZM3.3165 2.84962C3.04984 2.84962 2.80817 2.94129 2.6165 3.11629C2.40817 3.30795 2.2915 3.58295 2.2915 3.88295V13.9496C2.2915 14.4413 2.7165 14.9163 3.1915 14.9829L3.4415 15.0163C5.3165 15.2663 8.1915 16.2079 9.85817 17.1163C9.93317 17.1496 10.0415 17.1579 10.0832 17.1413C11.7498 16.2163 14.6415 15.2663 16.5248 15.0163L16.8082 14.9829C17.2832 14.9246 17.7082 14.4413 17.7082 13.9496V3.89129C17.7082 3.58295 17.5915 3.31629 17.3832 3.11629C17.1665 2.92462 16.8915 2.83295 16.5832 2.84962C16.5665 2.84962 16.4998 2.84962 16.4832 2.84962C14.8915 2.99129 12.3248 3.84962 10.9248 4.72462L10.7915 4.81629C10.3332 5.09962 9.68317 5.09962 9.2415 4.82462L9.0415 4.70795C7.6165 3.83295 5.04984 2.98295 3.4165 2.84962C3.38317 2.84962 3.34984 2.84962 3.3165 2.84962Z" fill="#BDBEC5"/>
<path d="M10 17.6986C9.65833 17.6986 9.375 17.4152 9.375 17.0736V4.57355C9.375 4.23188 9.65833 3.94855 10 3.94855C10.3417 3.94855 10.625 4.23188 10.625 4.57355V17.0736C10.625 17.4236 10.3417 17.6986 10 17.6986Z" fill="#BDBEC5"/>
<path d="M6.4585 7.69855H4.5835C4.24183 7.69855 3.9585 7.41521 3.9585 7.07355C3.9585 6.73188 4.24183 6.44855 4.5835 6.44855H6.4585C6.80016 6.44855 7.0835 6.73188 7.0835 7.07355C7.0835 7.41521 6.80016 7.69855 6.4585 7.69855Z" fill="#BDBEC5"/>
<path d="M7.0835 10.1986H4.5835C4.24183 10.1986 3.9585 9.91528 3.9585 9.57361C3.9585 9.23194 4.24183 8.94861 4.5835 8.94861H7.0835C7.42516 8.94861 7.7085 9.23194 7.7085 9.57361C7.7085 9.91528 7.42516 10.1986 7.0835 10.1986Z" fill="#BDBEC5"/>
</svg>
