<svg width="20" height="20" viewBox="0 0 20 20" fill="none" xmlns="http://www.w3.org/2000/svg">
<g clip-path="url(#clip0_143_1067)">
<path d="M9.97496 18.3334C14.5773 18.3334 18.3083 14.6024 18.3083 10C18.3083 5.39765 14.5773 1.66669 9.97496 1.66669C5.37256 1.66669 1.6416 5.39765 1.6416 10C1.6416 14.6024 5.37256 18.3334 9.97496 18.3334Z" stroke="#BDBEC5" stroke-width="1.5" stroke-linecap="round" stroke-linejoin="round"/>
<path d="M7.28369 10.1916V8.79992C7.28369 7.06657 8.5087 6.35823 10.0087 7.2249L11.217 7.9249L12.4254 8.62492C13.9254 9.49158 13.9254 10.9082 12.4254 11.7749L11.217 12.4749L10.0087 13.1749C8.5087 14.0416 7.28369 13.3332 7.28369 11.5999V10.1916Z" stroke="#BDBEC5" stroke-width="1.5" stroke-miterlimit="10" stroke-linecap="round" stroke-linejoin="round"/>
</g>
<defs>
<clipPath id="clip0_143_1067">
<rect width="20" height="20" fill="white"/>
</clipPath>
</defs>
</svg>
