<svg width="40" height="40" viewBox="0 0 40 40" fill="none" xmlns="http://www.w3.org/2000/svg">
<path d="M14.4502 23.3334H6.66683C4.8335 23.3334 3.3335 24.8334 3.3335 26.6667V36.6667H14.4502V23.3334Z" stroke="#0037FF" stroke-width="1.5" stroke-miterlimit="10" stroke-linecap="round" stroke-linejoin="round"/>
<path d="M22.2169 16.6666H17.7669C15.9336 16.6666 14.4336 18.1666 14.4336 20V36.6666H25.5502V20C25.5502 18.1666 24.0669 16.6666 22.2169 16.6666Z" stroke="#0037FF" stroke-width="1.5" stroke-miterlimit="10" stroke-linecap="round" stroke-linejoin="round"/>
<path d="M33.3331 28.3334H25.5498V36.6667H36.6665V31.6667C36.6665 29.8334 35.1665 28.3334 33.3331 28.3334Z" stroke="#0037FF" stroke-width="1.5" stroke-miterlimit="10" stroke-linecap="round" stroke-linejoin="round"/>
<path d="M20.8671 3.45007L21.7504 5.21672C21.8671 5.46672 22.1837 5.70005 22.4504 5.73339L24.0504 6.00007C25.0671 6.16674 25.3171 6.9167 24.5837 7.63337L23.3337 8.88337C23.1171 9.10004 23.0004 9.50005 23.0671 9.78339L23.4171 11.3167C23.7004 12.5334 23.0504 13.0001 21.9837 12.3667L20.4837 11.4834C20.2171 11.3167 19.7671 11.3167 19.5004 11.4834L18.0004 12.3667C16.9337 13.0001 16.2837 12.5334 16.567 11.3167L16.9171 9.78339C16.9837 9.50005 16.8671 9.08337 16.6504 8.88337L15.417 7.65005C14.6837 6.91672 14.917 6.18337 15.9504 6.0167L17.5504 5.75007C17.8171 5.70007 18.1337 5.46674 18.2504 5.2334L19.1337 3.4667C19.6171 2.50004 20.3837 2.50007 20.8671 3.45007Z" stroke="#0037FF" stroke-width="1.5" stroke-linecap="round" stroke-linejoin="round"/>
</svg>
