<svg width="40" height="40" viewBox="0 0 40 40" fill="none" xmlns="http://www.w3.org/2000/svg">
<path d="M25.65 8.68337L27.9998 13.3834C28.3165 14.0334 29.1665 14.65 29.8832 14.7834L34.1333 15.4834C36.85 15.9334 37.4833 17.9 35.5333 19.8667L32.2165 23.1834C31.6665 23.7334 31.35 24.8167 31.5333 25.6L32.4832 29.7C33.2332 32.9334 31.5 34.2 28.65 32.5L24.6665 30.1334C23.9498 29.7 22.75 29.7 22.0333 30.1334L18.0498 32.5C15.1999 34.1834 13.4666 32.9334 14.2166 29.7L15.1666 25.6C15.3499 24.8334 15.0333 23.75 14.4833 23.1834L11.1666 19.8667C9.2166 17.9167 9.84994 15.95 12.5666 15.4834L16.8165 14.7834C17.5332 14.6667 18.3833 14.0334 18.7 13.3834L21.05 8.68337C22.3 6.13337 24.3667 6.13337 25.65 8.68337Z" stroke="#FFC700" stroke-width="1.5" stroke-linecap="round" stroke-linejoin="round"/>
<path d="M13.3335 8.33337H3.3335" stroke="#FFC700" stroke-width="1.5" stroke-linecap="round" stroke-linejoin="round"/>
<path d="M8.3335 31.6666H3.3335" stroke="#FFC700" stroke-width="1.5" stroke-linecap="round" stroke-linejoin="round"/>
<path d="M5.00016 20H3.3335" stroke="#FFC700" stroke-width="1.5" stroke-linecap="round" stroke-linejoin="round"/>
</svg>
