<svg width="40" height="40" viewBox="0 0 40 40" fill="none" xmlns="http://www.w3.org/2000/svg">
<path d="M16.75 4.21673L6.7167 10.7667C3.50003 12.8667 3.50003 17.5667 6.7167 19.6667L16.75 26.2167C18.55 27.4 21.5167 27.4 23.3167 26.2167L33.3 19.6667C36.5 17.5667 36.5 12.8834 33.3 10.7834L23.3167 4.23339C21.5167 3.03339 18.55 3.03339 16.75 4.21673Z" stroke="#4AC91E" stroke-width="1.5" stroke-linecap="round" stroke-linejoin="round"/>
<path d="M9.38337 21.8002L9.3667 29.6168C9.3667 31.7335 11 34.0002 13 34.6668L18.3167 36.4335C19.2334 36.7335 20.75 36.7335 21.6834 36.4335L27 34.6668C29 34.0002 30.6334 31.7335 30.6334 29.6168V21.8835" stroke="#4AC91E" stroke-width="1.5" stroke-linecap="round" stroke-linejoin="round"/>
<path d="M35.6665 25V15" stroke="#4AC91E" stroke-width="1.5" stroke-linecap="round" stroke-linejoin="round"/>
</svg>
