<svg width="16" height="16" viewBox="0 0 16 16" fill="none" xmlns="http://www.w3.org/2000/svg">
<path d="M9.38212 1.15534L10.79 3.9943C10.9819 4.38951 11.4939 4.76856 11.9258 4.84115L14.4775 5.26861C16.1094 5.54283 16.4933 6.73647 15.3175 7.91399L13.3337 9.91417C12.9977 10.2529 12.8137 10.9062 12.9177 11.374L13.4857 13.85C13.9336 15.8098 12.9017 16.568 11.1819 15.5437L8.79018 14.1161C8.35823 13.8581 7.64631 13.8581 7.20636 14.1161L4.81461 15.5437C3.1028 16.568 2.06291 15.8018 2.51086 13.85L3.0788 11.374C3.18279 10.9062 2.99881 10.2529 2.66285 9.91417L0.67907 7.91399C-0.488799 6.73647 -0.112841 5.54283 1.51898 5.26861L4.07069 4.84115C4.49464 4.76856 5.00659 4.38951 5.19856 3.9943L6.60643 1.15534C7.37434 -0.385114 8.6222 -0.385114 9.38212 1.15534Z" fill="#B9B9B9"/>
</svg>
