<svg width="24" height="24" viewBox="0 0 24 24" fill="none" xmlns="http://www.w3.org/2000/svg">
<g clip-path="url(#clip0_108_998)">
<rect x="-0.000610352" y="-0.000244141" width="23.9689" height="23.732" rx="2" fill="white"/>
<path d="M20.422 20.2211H16.8706V14.7141C16.8706 13.4009 16.8469 11.7105 15.0235 11.7105C13.1738 11.7105 12.8908 13.1412 12.8908 14.6185V20.2207H9.3393V8.8962H12.7487V10.4438H12.7964C13.1376 9.86618 13.6307 9.39099 14.223 9.06885C14.8154 8.74671 15.4849 8.5897 16.1603 8.61452C19.7599 8.61452 20.4235 10.9588 20.4235 14.0086L20.422 20.2211ZM5.3321 7.34822C4.92448 7.3483 4.52599 7.22869 4.18703 7.00452C3.84806 6.78035 3.58387 6.46169 3.42781 6.08884C3.27176 5.71598 3.23086 5.30568 3.31031 4.90982C3.38976 4.51396 3.58599 4.15032 3.87416 3.86488C4.16234 3.57944 4.52953 3.38502 4.9293 3.30621C5.32907 3.2274 5.74346 3.26774 6.12008 3.42212C6.4967 3.57651 6.81862 3.838 7.04514 4.17355C7.27166 4.50909 7.39261 4.90361 7.39268 5.30721C7.39273 5.57519 7.33946 5.84056 7.23593 6.08816C7.13241 6.33576 6.98065 6.56075 6.78931 6.75027C6.59797 6.9398 6.37078 7.09015 6.12076 7.19275C5.87073 7.29534 5.60275 7.34818 5.3321 7.34822ZM7.10782 20.2211H3.55268V8.8962H7.10782V20.2211ZM22.1926 0.00137276H1.76809C1.30451 -0.0038072 0.857794 0.173458 0.526146 0.494215C0.194499 0.814973 0.00504737 1.25298 -0.000610352 1.71199V22.0192C0.00485373 22.4785 0.194194 22.9168 0.52583 23.2379C0.857467 23.5589 1.30428 23.7366 1.76809 23.7317H22.1926C22.6573 23.7374 23.1054 23.5603 23.4383 23.2393C23.7713 22.9182 23.9619 22.4794 23.9683 22.0192V1.71052C23.9617 1.2506 23.7709 0.812099 23.438 0.49135C23.105 0.1706 22.6571 -0.00615879 22.1926 -9.30251e-05" fill="#0A66C2"/>
</g>
<defs>
<clipPath id="clip0_108_998">
<rect width="24" height="24" fill="white"/>
</clipPath>
</defs>
</svg>
