<svg width="218" height="48" viewBox="0 0 218 48" fill="none" xmlns="http://www.w3.org/2000/svg">
<g clip-path="url(#clip0_80_2209)">
<path d="M2.32581 10.4443V26.2486H8.56696V28.126H0V10.4443H2.32581Z" fill="#F3DA38"/>
<path d="M18.6684 28.3514C14.6774 28.3514 11.7391 25.5592 11.7391 21.149C11.7391 16.7593 14.5741 13.9944 18.6684 13.9944C22.7351 13.9944 25.3912 16.8344 25.3912 20.637C25.3912 21.1422 25.3637 21.5518 25.3155 22.0297H14.1131C14.292 24.8423 16.2875 26.3921 18.6615 26.3921C20.7603 26.3921 22.0883 25.3271 22.5975 23.832H25.1022C24.3935 26.3716 22.1434 28.3514 18.6684 28.3514ZM14.1406 20.1591H22.9897C23.0173 17.442 20.9667 15.9469 18.5652 15.9469C16.2875 15.9469 14.3952 17.442 14.1406 20.1591Z" fill="#F3DA38"/>
<path d="M35.7955 13.9944C38.4034 13.9944 40.1925 15.312 41.0113 16.7593V14.2197H43.3647V28.1193H41.0113V25.5387C40.1649 27.0338 38.3552 28.3514 35.7679 28.3514C32.0384 28.3514 29.1483 25.4363 29.1483 21.1217C29.1483 16.7866 32.0384 13.9944 35.7955 13.9944ZM36.2565 16.0015C33.6967 16.0015 31.5292 17.8516 31.5292 21.1285C31.5292 24.4054 33.7036 26.3306 36.2565 26.3306C38.8094 26.3306 41.0113 24.4259 41.0113 21.1558C41.0113 17.9267 38.8163 16.0015 36.2565 16.0015Z" fill="#F3DA38"/>
<path d="M51.1953 28.1261H48.8695V14.2265H51.1953V16.4862C51.9866 14.9365 53.4936 13.9739 55.7231 13.9739V16.3565H55.1107C52.8881 16.3565 51.2022 17.3464 51.2022 20.5687V28.1261H51.1953Z" fill="#F3DA38"/>
<path d="M70.2147 20.2615C70.2147 17.4215 68.6527 15.9742 66.2994 15.9742C63.9185 15.9742 62.2877 17.4488 62.2877 20.439V28.1261H59.9619V14.2265H62.2877V16.2063C63.2098 14.759 64.8957 13.9739 66.788 13.9739C70.0358 13.9739 72.513 15.9537 72.513 19.9338V28.1261H70.2147V20.2615Z" fill="#F3DA38"/>
<path d="M77.5087 10.3966C77.5087 9.50911 78.1968 8.82642 79.0913 8.82642C79.9377 8.82642 80.6258 9.50911 80.6258 10.3966C80.6258 11.2841 79.9377 11.9668 79.0913 11.9668C78.1968 11.9668 77.5087 11.2841 77.5087 10.3966ZM77.8871 14.2265H80.2129V28.1261H77.8871V14.2265Z" fill="#F3DA38"/>
<path d="M95.9912 20.2615C95.9912 17.4215 94.4292 15.9742 92.0759 15.9742C89.695 15.9742 88.0642 17.4488 88.0642 20.439V28.1261H85.7384V14.2265H88.0642V16.2063C88.9863 14.759 90.6722 13.9739 92.5645 13.9739C95.8123 13.9739 98.2895 15.9537 98.2895 19.9338V28.1261H95.9912V20.2615Z" fill="#F3DA38"/>
<path d="M109.444 13.9944C112.004 13.9944 113.841 15.2642 114.66 16.7593V14.2197H117.013V28.4265C117.013 32.2564 114.433 34.9735 110.318 34.9735C106.636 34.9735 104.001 33.1234 103.54 30.1537H105.838C106.347 31.8263 108.013 32.9664 110.311 32.9664C112.788 32.9664 114.66 31.3962 114.66 28.4265V25.5114C113.813 27.0065 112.004 28.3514 109.444 28.3514C105.687 28.3514 102.797 25.4363 102.797 21.1217C102.797 16.7866 105.687 13.9944 109.444 13.9944ZM109.905 16.0015C107.345 16.0015 105.177 17.8516 105.177 21.1285C105.177 24.4054 107.352 26.3306 109.905 26.3306C112.465 26.3306 114.66 24.4259 114.66 21.1558C114.66 17.9267 112.458 16.0015 109.905 16.0015Z" fill="#F3DA38"/>
<path d="M135.028 29.9898H128.381V12.3081H134.773C138.53 12.3081 140.423 14.3357 140.423 16.8002C140.423 19.0326 139.019 20.3229 137.305 20.8827C139.246 21.2104 140.835 23.0673 140.835 25.2451C140.829 27.9076 138.709 29.9898 135.028 29.9898ZM134.567 14.2128H130.706V19.9474H134.615C136.789 19.9474 138.042 18.8824 138.042 17.0801C138.042 15.3256 136.844 14.2128 134.567 14.2128ZM134.746 21.8453H130.706V28.0851H134.821C137.12 28.0851 138.503 26.945 138.503 25.013C138.503 23.0605 137.023 21.8453 134.746 21.8453Z" fill="#0A1026"/>
<path d="M151.728 30.2151C147.765 30.2151 144.751 27.4229 144.751 23.0128C144.751 18.6231 147.868 15.8582 151.831 15.8582C155.822 15.8582 158.912 18.6231 158.912 23.0128C158.912 27.4229 155.712 30.2151 151.728 30.2151ZM151.728 28.1876C154.157 28.1876 156.538 26.5354 156.538 23.0128C156.538 19.5106 154.212 17.8653 151.811 17.8653C149.354 17.8653 147.132 19.5174 147.132 23.0128C147.125 26.5354 149.299 28.1876 151.728 28.1876Z" fill="#0A1026"/>
<path d="M169.646 30.2151C165.683 30.2151 162.669 27.4229 162.669 23.0128C162.669 18.6231 165.786 15.8582 169.75 15.8582C173.741 15.8582 176.83 18.6231 176.83 23.0128C176.837 27.4229 173.638 30.2151 169.646 30.2151ZM169.646 28.1876C172.076 28.1876 174.456 26.5354 174.456 23.0128C174.456 19.5106 172.131 17.8653 169.729 17.8653C167.273 17.8653 165.05 19.5174 165.05 23.0128C165.05 26.5354 167.217 28.1876 169.646 28.1876Z" fill="#0A1026"/>
<path d="M181.977 17.9882H180.161V16.0835H181.977V12.5813H184.303V16.0835H187.957V17.9882H184.303V26.1805C184.303 27.5527 184.813 28.0306 186.244 28.0306H187.957V29.9831H185.858C183.381 29.9831 181.971 28.9659 181.971 26.1805V17.9882H181.977Z" fill="#0A1026"/>
<path d="M192.333 11.2158H194.659V18.0905C195.581 16.6227 197.315 15.8308 199.283 15.8308C202.401 15.8308 204.885 17.8106 204.885 21.7907V29.983H202.586V22.1252C202.586 19.2852 201.024 17.8379 198.678 17.8379C196.297 17.8379 194.666 19.3125 194.666 22.3027V29.9898H192.34V11.2158H192.333Z" fill="#0A1026"/>
<path d="M88.1469 2.76416H85.594V12.4993H88.1469V2.76416Z" fill="#F3DA38"/>
<path d="M85.3654 -3.27396e-05L85.3402 2.56006L217.98 3.84245L218.005 1.28236L85.3654 -3.27396e-05Z" fill="#F3DA38"/>
<path d="M217.986 2.52515H215.406V46.5655H217.986V2.52515Z" fill="#F3DA38"/>
<path d="M112.822 36.728H110.235V45.4392H112.822V36.728Z" fill="#F3DA38"/>
<path d="M110.117 45.2888L110.114 47.8489L217.982 48.0042L217.985 45.4441L110.117 45.2888Z" fill="#F3DA38"/>
</g>
<defs>
<clipPath id="clip0_80_2209">
<rect width="218" height="48" fill="white"/>
</clipPath>
</defs>
</svg>
