<svg width="24" height="24" viewBox="0 0 24 24" fill="none" xmlns="http://www.w3.org/2000/svg">
<path d="M9.16055 10.87C9.06055 10.86 8.94055 10.86 8.83055 10.87C6.45055 10.79 4.56055 8.84 4.56055 6.44C4.56055 3.99 6.54055 2 9.00055 2C11.4506 2 13.4406 3.99 13.4406 6.44C13.4306 8.84 11.5406 10.79 9.16055 10.87Z" stroke="white" stroke-width="1.5" stroke-linecap="round" stroke-linejoin="round"/>
<path d="M16.4103 4C18.3503 4 19.9103 5.57 19.9103 7.5C19.9103 9.39 18.4103 10.93 16.5403 11C16.4603 10.99 16.3703 10.99 16.2803 11" stroke="white" stroke-width="1.5" stroke-linecap="round" stroke-linejoin="round"/>
<path d="M4.15973 14.56C1.73973 16.18 1.73973 18.82 4.15973 20.43C6.90973 22.27 11.4198 22.27 14.1698 20.43C16.5898 18.81 16.5898 16.17 14.1698 14.56C11.4298 12.73 6.91973 12.73 4.15973 14.56Z" stroke="white" stroke-width="1.5" stroke-linecap="round" stroke-linejoin="round"/>
<path d="M18.3398 20C19.0598 19.85 19.7398 19.56 20.2998 19.13C21.8598 17.96 21.8598 16.03 20.2998 14.86C19.7498 14.44 19.0798 14.16 18.3698 14" stroke="white" stroke-width="1.5" stroke-linecap="round" stroke-linejoin="round"/>
</svg>
